<svg xmlns="http://www.w3.org/2000/svg" width="587" height="512" viewBox="0 0 587 512" version="1.1"><path d="M 178.500 35.383 C 169.179 39.790, 164.044 48.002, 164.044 58.500 C 164.044 68.371, 169.010 76.874, 177.250 81.112 L 181 83.041 181 109.472 L 181 135.904 176.696 138.865 C 170.693 142.995, 160.988 153.611, 156.577 160.873 C 151.361 169.460, 147.181 181.576, 146.098 191.249 C 144.694 203.789, 147.399 224.449, 150.607 225.680 C 151.337 225.960, 154.680 225.134, 158.036 223.844 C 163.929 221.581, 164.118 221.397, 163.551 218.500 C 163.227 216.850, 162.431 211.773, 161.782 207.219 C 159.549 191.546, 163.656 176.500, 173.840 163.049 C 181.373 153.099, 181 151.723, 181 189.450 L 181 223 199.750 222.998 L 218.500 222.995 218.171 230.498 L 217.842 238 170.891 238 L 123.939 238 124.035 211.750 L 124.131 185.500 107.116 185 L 90.100 184.500 87.042 179.881 C 75.218 162.018, 49.996 164.278, 41.079 184 C 31.989 204.104, 55.183 226.445, 75.319 216.980 C 80.756 214.425, 87.223 208.291, 88.997 204.006 L 90.243 201 99.121 201 L 108 201 108 227.500 L 108 254 163.250 254 L 218.500 254 218.500 261.500 L 218.500 269 154.453 269 L 90.405 269 86.953 263.750 C 84.649 260.247, 81.684 257.418, 78.044 255.250 C 73.256 252.397, 71.727 252.003, 65.544 252.022 C 54.030 252.058, 46.212 257.054, 41.358 267.479 C 36.973 276.896, 39.231 288.068, 47.098 295.876 C 59.098 307.785, 80.063 304.667, 87.950 289.801 L 90.231 285.500 154.209 285.735 L 218.187 285.970 218.343 293.486 L 218.500 301.001 158.250 301 L 98 301 98 336.480 L 98 371.959 94.237 373.879 C 75.330 383.524, 75.481 410.143, 94.500 420.314 C 100.142 423.332, 111.858 423.332, 117.500 420.314 C 126.662 415.415, 131.176 407.719, 131.176 397 C 131.176 386.619, 127.168 379.527, 118.395 374.385 L 114 371.810 114 344.405 L 114 317 166.250 316.998 L 218.500 316.996 218.186 327.498 L 217.871 338 228.936 338 L 240 338 240 347.500 L 240 357 248 357 L 256 357 256 347.500 L 256 338 263.500 338 L 271 338 271 347.500 L 271 357 279 357 L 287 357 287 347.500 L 287 338 295 338 L 303 338 303 347.500 L 303 357 311 357 L 319 357 319 347.500 L 319 338 326.500 338 L 334 338 334 347.500 L 334 357 342 357 L 350 357 350 347.500 L 350 338 361.064 338 L 372.129 338 371.814 327.498 L 371.500 316.996 418.750 316.998 L 466 317 466 350 L 466 383 437.500 383 L 409 383 409 405.892 L 409 428.783 406.750 429.358 C 403.236 430.255, 397.259 435.702, 394.360 440.648 C 390.698 446.897, 389.968 456.886, 392.720 463.080 C 397.324 473.443, 405.816 479.015, 416.946 478.978 C 430.512 478.933, 440.338 470.247, 442.563 456.334 C 444.028 447.167, 436.457 433.503, 427.962 429.984 L 425 428.757 425 413.879 L 425 399 453.500 399 L 482 399 482 350 L 482 301 426.750 301 L 371.500 301.001 371.657 293.493 L 371.813 285.986 444.407 285.743 L 517 285.500 517 325.775 L 517 366.050 514.432 367.026 C 509.777 368.796, 505.366 372.913, 502.411 378.246 C 499.913 382.756, 499.504 384.562, 499.523 391 C 499.549 399.320, 501.542 404.386, 506.658 409.140 C 514.736 416.644, 527.108 418.711, 536.217 414.078 C 542.114 411.078, 545.149 407.916, 548.428 401.355 C 554.410 389.386, 549.137 374.276, 536.750 367.892 L 533 365.959 533 317.480 L 533 269 452.579 269 L 372.158 269 371.829 261.498 L 371.500 253.995 452.250 253.998 L 533 254 533 235.520 L 533 217.041 536.750 215.108 C 548.989 208.800, 554.402 193.647, 548.545 182.089 C 543.390 171.916, 535.765 167.044, 525 167.044 C 502.058 167.044, 490.862 193.178, 506.597 210 C 509.060 212.634, 512.409 215.341, 514.038 216.016 L 517 217.243 517 227.621 L 517 238 444.250 238 L 371.500 238 371.500 230.500 L 371.500 223 426.750 223 L 482 223 482 160.020 L 482 97.041 485.750 95.108 C 497.455 89.075, 502.736 75.222, 498.056 62.828 C 494.260 52.773, 485.441 46.757, 474.500 46.757 C 459.625 46.757, 449 57.086, 449 71.547 C 449 82.267, 452.549 88.895, 461.109 94.162 L 466 97.172 466 152.086 L 466 207 419 207 L 372 207 372 196 L 372 185 361 185 L 350 185 350 175.500 L 350 166 342 166 L 334 166 334 175.500 L 334 185 326.500 185 L 319 185 319 175.460 L 319 165.919 310.788 166.210 L 302.575 166.500 302.871 175.750 L 303.166 185 295 185 L 286.834 185 287.129 175.750 L 287.425 166.500 279.212 166.210 L 271 165.919 271 175.460 L 271 185 263.500 185 L 256 185 256 175.500 L 256 166 248 166 L 240 166 240 175.500 L 240 185 229 185 L 218 185 218 196 L 218 207 208 207 L 198 207 198 145.161 L 198 83.321 200.377 82.238 C 204.834 80.207, 210.313 74.523, 212.649 69.507 C 222.730 47.859, 200.050 25.195, 178.500 35.383 M 185.025 49.727 C 182.700 50.913, 181.090 52.721, 180.163 55.188 C 178.920 58.492, 178.970 59.270, 180.638 62.669 C 184.516 70.569, 195.248 70.438, 198.585 62.450 C 202.283 53.601, 193.529 45.388, 185.025 49.727 M 467.077 65.077 C 464.708 67.446, 464 69.038, 464 72 C 464 74.962, 464.708 76.554, 467.077 78.923 C 473.603 85.449, 484 81.196, 484 72 C 484 62.804, 473.603 58.551, 467.077 65.077 M 253 76.882 C 246.493 79.017, 239.855 83.389, 234.749 88.905 C 231.669 92.231, 228.887 95.782, 228.565 96.797 C 228.205 97.930, 225.958 99.293, 222.740 100.330 C 216.372 102.383, 207.783 107.043, 207.238 108.740 C 207.019 109.423, 209.063 112.311, 211.779 115.159 L 216.719 120.337 220.347 118.095 C 222.393 116.830, 226.922 115.444, 230.737 114.915 C 239.793 113.659, 239.504 113.843, 241.036 108.372 C 241.983 104.989, 243.882 102.027, 247.441 98.383 C 251.721 94, 253.362 93.027, 258.096 92.062 C 269.207 89.798, 278.961 94.349, 284.752 104.500 C 286.105 106.872, 286.572 110.957, 286.982 124 L 287.500 140.500 295 140.500 L 302.500 140.500 303.011 124 C 303.531 107.240, 303.882 105.613, 308.165 100.095 C 315.489 90.660, 330.133 88.653, 339.985 95.735 C 344.426 98.927, 347.387 103.221, 349.108 108.965 C 350.564 113.827, 350.300 113.672, 359.263 114.915 C 370.768 116.510, 377.764 122.859, 380.098 133.824 C 381.536 140.579, 382.028 141.145, 388.500 143.497 C 397.301 146.695, 404.319 151.264, 411.505 158.473 C 420.353 167.349, 424.370 174.715, 427.948 188.623 C 428.928 192.433, 429.319 192.795, 433.101 193.400 C 435.351 193.760, 438.774 193.758, 440.708 193.395 L 444.223 192.736 443.593 187.989 C 440.605 165.465, 423.597 142.825, 401.224 131.590 C 396.629 129.282, 395.626 128.212, 393.452 123.297 C 388.621 112.371, 378.178 102.990, 367.530 100.008 C 363.933 99.001, 362.262 97.788, 360.057 94.583 C 355.809 88.409, 348.551 82.150, 342.175 79.160 C 337.155 76.807, 335.289 76.501, 326 76.507 C 316.384 76.513, 315.037 76.756, 310 79.389 C 306.975 80.970, 302.385 84.028, 299.799 86.184 L 295.099 90.104 289.313 85.391 C 280.630 78.318, 276.178 76.661, 265 76.337 C 259.775 76.186, 254.375 76.431, 253 76.882 M 518.106 184.901 C 513.992 188.744, 513.783 194.401, 517.589 198.923 C 519.772 201.517, 520.882 202, 524.666 202 C 528.293 202, 529.715 201.439, 532.077 199.077 C 541.282 189.871, 527.622 176.011, 518.106 184.901 M 61.388 183.980 C 60.227 184.449, 58.271 186.108, 57.043 187.667 C 55.282 189.901, 54.922 191.345, 55.343 194.498 C 56.053 199.820, 59.715 203, 65.133 203 C 76.278 203, 78.814 187.921, 68.339 183.939 C 65.420 182.829, 64.219 182.836, 61.388 183.980 M 235 261.500 L 235 322 295 322 L 355 322 355 261.500 L 355 201 295 201 L 235 201 235 261.500 M 251 262 L 251 306 295 306 L 339 306 339 262 L 339 218 295 218 L 251 218 251 262 M 267 262 L 267 290 295 290 L 323 290 323 262 L 323 234 295 234 L 267 234 267 262 M 62.500 267.716 C 59.341 268.480, 56.083 272.040, 55.449 275.420 C 53.590 285.331, 65.575 291.516, 72.223 284.077 C 77.227 278.476, 75.331 270.597, 68.339 267.939 C 65.742 266.951, 65.671 266.949, 62.500 267.716 M 163.195 330.052 L 156.890 332.957 159.634 337.728 C 168.044 352.352, 176.835 362.400, 187.258 369.303 C 192.519 372.788, 193.001 373.417, 193.012 376.803 C 193.060 391.905, 204.883 410.043, 219.768 417.849 C 225.043 420.616, 226.441 421.938, 228.602 426.201 C 232.265 433.429, 239.277 440.483, 246.280 443.982 C 251.914 446.798, 253.063 446.999, 263.410 446.990 C 276.546 446.979, 281.778 445.094, 289.987 437.415 L 295 432.726 300.013 437.415 C 302.769 439.994, 307.382 443.201, 310.263 444.542 C 314.822 446.665, 316.943 446.982, 326.648 446.990 C 337.154 446.999, 338.134 446.824, 343.648 443.938 C 351.289 439.940, 357.239 434.032, 361.164 426.544 C 363.988 421.157, 364.993 420.182, 370.416 417.571 C 377.812 414.010, 387.740 404.420, 391.297 397.400 C 394.311 391.452, 397 381.666, 397 376.643 C 397 373.402, 397.549 372.702, 402.978 369.015 C 413.971 361.550, 421.827 352.575, 430.363 337.732 L 433.106 332.964 426.460 329.982 C 422.804 328.342, 419.444 327, 418.993 327 C 418.541 327, 416.484 330.038, 414.421 333.750 C 408.985 343.533, 397.385 354.789, 388.159 359.234 L 380.819 362.771 380.635 373.136 C 380.484 381.625, 380.043 384.329, 378.195 388.080 C 373.898 396.806, 365.674 403.484, 355.654 406.385 C 351.282 407.651, 350.517 408.599, 349.025 414.596 C 344.856 431.352, 322.939 437.606, 310.153 425.688 C 304.525 420.442, 303.550 416.747, 303.175 399.250 L 302.828 383 295 383 L 287.172 383 286.825 399.250 C 286.519 413.542, 286.219 415.982, 284.336 419.500 C 275.898 435.263, 253.155 436.312, 243.916 421.365 C 242.666 419.341, 241.132 415.416, 240.507 412.642 C 239.415 407.792, 239.200 407.554, 234.935 406.457 C 224.351 403.736, 216.719 397.469, 211.851 387.500 C 209.168 382.009, 208.940 380.711, 209.157 372.187 L 209.394 362.874 201.947 359.286 C 192.611 354.787, 181.045 343.587, 175.579 333.750 C 173.516 330.038, 171.304 327.033, 170.664 327.074 C 170.024 327.115, 166.663 328.455, 163.195 330.052 M 517.923 383.923 C 513.070 388.776, 514.083 396.440, 519.980 399.490 C 524.636 401.897, 527.820 401.380, 531.600 397.600 C 536.132 393.068, 536.304 388.150, 532.077 383.923 C 529.784 381.631, 528.258 381, 525 381 C 521.742 381, 520.216 381.631, 517.923 383.923 M 100.775 388.559 C 92.114 393.259, 95.777 407.035, 105.673 406.978 C 107.779 406.966, 110.459 406.179, 111.633 405.228 C 121.676 397.093, 112.110 382.408, 100.775 388.559 M 414.327 443.708 C 407.411 445.016, 404.458 455.186, 409.524 460.252 C 412.887 463.614, 416.694 464.255, 421 462.184 C 431.606 457.082, 425.979 441.504, 414.327 443.708" stroke="none" fill="#fcca04" fill-rule="evenodd"/></svg>